0
SECTION
2
ENTITIES
0
LWPOLYLINE
8
LIVING-COMEDOR
90
4
70
1
10
0
20
0
10
5000
20
0
10
5000
20
4000
10
0
20
4000
0
TEXT
8
TEXTOS-RECINTO
10
2500
20
2000
40
200
1
Living / Comedor
0
LWPOLYLINE
8
COCINA
90
4
70
1
10
5000
20
0
10
8000
20
0
10
8000
20
3000
10
5000
20
3000
0
TEXT
8
TEXTOS-RECINTO
10
6500
20
1500
40
200
1
Cocina
0
LWPOLYLINE
8
BANO
90
4
70
1
10
8000
20
0
10
10000
20
0
10
10000
20
3000
10
8000
20
3000
0
TEXT
8
TEXTOS-RECINTO
10
9000
20
1500
40
200
1
Baño
0
LWPOLYLINE
8
PASILLO
90
4
70
1
10
5000
20
3000
10
10000
20
3000
10
10000
20
4000
10
5000
20
4000
0
TEXT
8
TEXTOS-RECINTO
10
7500
20
3500
40
200
1
Pasillo
0
LWPOLYLINE
8
DORMITORIO
90
4
70
1
10
0
20
4000
10
4000
20
4000
10
4000
20
7000
10
0
20
7000
0
TEXT
8
TEXTOS-RECINTO
10
2000
20
5500
40
200
1
Dormitorio 1
0
LWPOLYLINE
8
DORMITORIO
90
4
70
1
10
4000
20
4000
10
7500
20
4000
10
7500
20
7000
10
4000
20
7000
0
TEXT
8
TEXTOS-RECINTO
10
5750
20
5500
40
200
1
Dormitorio 2
0
LWPOLYLINE
8
DORMITORIO
90
4
70
1
10
7500
20
4000
10
10000
20
4000
10
10000
20
7000
10
7500
20
7000
0
TEXT
8
TEXTOS-RECINTO
10
8750
20
5500
40
200
1
Dormitorio 3
0
LINE
8
MUROS
10
0
20
0
11
10000
21
0
0
LINE
8
MUROS
10
10000
20
0
11
10000
21
7000
0
LINE
8
MUROS
10
10000
20
7000
11
0
21
7000
0
LINE
8
MUROS
10
0
20
7000
11
0
21
0
0
ENDSEC
0
EOF