<svg xmlns="http://www.w3.org/2000/svg" viewBox="0 0 570 510" font-family="-apple-system,Segoe UI,Arial">
<rect width="570" height="510" fill="#fafaf7"/>
<g stroke="#e6e2d8" stroke-width="0.5">
<line x1="30.0" y1="0" x2="30.0" y2="510"/>
<line x1="90.0" y1="0" x2="90.0" y2="510"/>
<line x1="150.0" y1="0" x2="150.0" y2="510"/>
<line x1="210.0" y1="0" x2="210.0" y2="510"/>
<line x1="270.0" y1="0" x2="270.0" y2="510"/>
<line x1="330.0" y1="0" x2="330.0" y2="510"/>
<line x1="390.0" y1="0" x2="390.0" y2="510"/>
<line x1="450.0" y1="0" x2="450.0" y2="510"/>
<line x1="510.0" y1="0" x2="510.0" y2="510"/>
<line x1="570.0" y1="0" x2="570.0" y2="510"/>
<line x1="0" y1="480.0" x2="570" y2="480.0"/>
<line x1="0" y1="420.0" x2="570" y2="420.0"/>
<line x1="0" y1="360.0" x2="570" y2="360.0"/>
<line x1="0" y1="300.0" x2="570" y2="300.0"/>
<line x1="0" y1="240.0" x2="570" y2="240.0"/>
<line x1="0" y1="180.0" x2="570" y2="180.0"/>
<line x1="0" y1="120.0" x2="570" y2="120.0"/>
<line x1="0" y1="60.0" x2="570" y2="60.0"/>
<line x1="0" y1="0.0" x2="570" y2="0.0"/>
</g>
<polygon points="30.0,480.0 330.0,480.0 330.0,210.0 30.0,210.0" fill="#FFE5C2" stroke="#8C3F12" stroke-width="1.5" opacity="0.85"/>
<text x="180.0" y="339.0" text-anchor="middle" font-size="13" font-weight="600" fill="#1F1D18">Living / Comedor</text>
<text x="180.0" y="355.0" text-anchor="middle" font-size="11" fill="#595959">22.5 m²</text>
<text x="180.0" y="369.0" text-anchor="middle" font-size="9" fill="#8C3F12" font-style="italic">living</text>
<polygon points="330.0,480.0 540.0,480.0 540.0,300.0 330.0,300.0" fill="#FFDAB4" stroke="#8C3F12" stroke-width="1.5" opacity="0.85"/>
<text x="435.0" y="384.0" text-anchor="middle" font-size="13" font-weight="600" fill="#1F1D18">Cocina</text>
<text x="435.0" y="400.0" text-anchor="middle" font-size="11" fill="#595959">10.5 m²</text>
<text x="435.0" y="414.0" text-anchor="middle" font-size="9" fill="#8C3F12" font-style="italic">cocina</text>
<polygon points="330.0,300.0 450.0,300.0 450.0,210.0 330.0,210.0" fill="#C9DAF8" stroke="#8C3F12" stroke-width="1.5" opacity="0.85"/>
<text x="390.0" y="249.0" text-anchor="middle" font-size="13" font-weight="600" fill="#1F1D18">Baño</text>
<text x="390.0" y="265.0" text-anchor="middle" font-size="11" fill="#595959">3.0 m²</text>
<text x="390.0" y="279.0" text-anchor="middle" font-size="9" fill="#8C3F12" font-style="italic">bano</text>
<polygon points="30.0,210.0 300.0,210.0 300.0,30.0 30.0,30.0" fill="#D9EAD3" stroke="#8C3F12" stroke-width="1.5" opacity="0.85"/>
<text x="165.0" y="114.0" text-anchor="middle" font-size="13" font-weight="600" fill="#1F1D18">Dormitorio 1</text>
<text x="165.0" y="130.0" text-anchor="middle" font-size="11" fill="#595959">13.5 m²</text>
<text x="165.0" y="144.0" text-anchor="middle" font-size="9" fill="#8C3F12" font-style="italic">dormitorio</text>
<polygon points="300.0,210.0 540.0,210.0 540.0,30.0 300.0,30.0" fill="#D9EAD3" stroke="#8C3F12" stroke-width="1.5" opacity="0.85"/>
<text x="420.0" y="114.0" text-anchor="middle" font-size="13" font-weight="600" fill="#1F1D18">Dormitorio 2</text>
<text x="420.0" y="130.0" text-anchor="middle" font-size="11" fill="#595959">12.0 m²</text>
<text x="420.0" y="144.0" text-anchor="middle" font-size="9" fill="#8C3F12" font-style="italic">dormitorio</text>
<text x="10" y="20" font-size="14" font-weight="700" fill="#8C3F12">Plano parseado · plano-departamento-tipo.dxf</text>
<text x="10" y="500" font-size="12" fill="#595959">5 recintos · 61.5 m² totales · fuente: dxf</text>
</svg>